<svg width="351" height="56" viewBox="0 0 351 56" fill="none" xmlns="http://www.w3.org/2000/svg">
<path d="M2.8267 34H0.497159L5.73153 19.4545H8.26705L13.5014 34H11.1719L7.05966 22.0966H6.94602L2.8267 34ZM3.21733 28.304H10.7741V30.1506H3.21733V28.304ZM15.6019 34V19.4545H17.7255V24.8594H17.8533C17.9764 24.6321 18.154 24.3693 18.386 24.071C18.618 23.7727 18.94 23.5123 19.3519 23.2898C19.7638 23.0625 20.3084 22.9489 20.9854 22.9489C21.8661 22.9489 22.6521 23.1714 23.3434 23.6165C24.0347 24.0616 24.5768 24.7031 24.9698 25.5412C25.3675 26.3793 25.5664 27.3878 25.5664 28.5668C25.5664 29.7457 25.3699 30.7566 24.9769 31.5994C24.5839 32.4375 24.0442 33.0838 23.3576 33.5384C22.671 33.9882 21.8874 34.2131 21.0067 34.2131C20.3439 34.2131 19.8017 34.1018 19.3803 33.8793C18.9637 33.6567 18.637 33.3963 18.4002 33.098C18.1635 32.7997 17.9812 32.5346 17.8533 32.3026H17.6758V34H15.6019ZM17.6829 28.5455C17.6829 29.3125 17.7942 29.9848 18.0167 30.5625C18.2392 31.1402 18.5612 31.5923 18.9826 31.919C19.404 32.241 19.9201 32.402 20.5309 32.402C21.1654 32.402 21.6957 32.2339 22.1218 31.8977C22.5479 31.5568 22.8699 31.0952 23.0877 30.5128C23.3103 29.9304 23.4215 29.2746 23.4215 28.5455C23.4215 27.8258 23.3126 27.1795 23.0948 26.6065C22.8817 26.0336 22.5598 25.5814 22.1289 25.25C21.7028 24.9186 21.1701 24.7528 20.5309 24.7528C19.9154 24.7528 19.3945 24.9115 18.9684 25.2287C18.547 25.5459 18.2274 25.9886 18.0096 26.5568C17.7918 27.125 17.6829 27.7879 17.6829 28.5455ZM32.5462 34.2202C31.5234 34.2202 30.6309 33.9858 29.8686 33.517C29.1063 33.0483 28.5144 32.3925 28.093 31.5497C27.6716 30.7069 27.4609 29.7221 27.4609 28.5952C27.4609 27.4635 27.6716 26.474 28.093 25.6264C28.5144 24.7789 29.1063 24.1207 29.8686 23.652C30.6309 23.1832 31.5234 22.9489 32.5462 22.9489C33.5689 22.9489 34.4614 23.1832 35.2237 23.652C35.986 24.1207 36.5779 24.7789 36.9993 25.6264C37.4207 26.474 37.6314 27.4635 37.6314 28.5952C37.6314 29.7221 37.4207 30.7069 36.9993 31.5497C36.5779 32.3925 35.986 33.0483 35.2237 33.517C34.4614 33.9858 33.5689 34.2202 32.5462 34.2202ZM32.5533 32.4375C33.2161 32.4375 33.7654 32.2623 34.201 31.9119C34.6366 31.5616 34.9586 31.0952 35.1669 30.5128C35.38 29.9304 35.4865 29.2888 35.4865 28.5881C35.4865 27.892 35.38 27.2528 35.1669 26.6705C34.9586 26.0833 34.6366 25.6122 34.201 25.2571C33.7654 24.902 33.2161 24.7244 32.5533 24.7244C31.8857 24.7244 31.3317 24.902 30.8913 25.2571C30.4557 25.6122 30.1314 26.0833 29.9183 26.6705C29.71 27.2528 29.6058 27.892 29.6058 28.5881C29.6058 29.2888 29.71 29.9304 29.9183 30.5128C30.1314 31.0952 30.4557 31.5616 30.8913 31.9119C31.3317 32.2623 31.8857 32.4375 32.5533 32.4375ZM46.9123 29.4759V23.0909H49.043V34H46.9549V32.1108H46.8413C46.5903 32.6932 46.1879 33.1785 45.6339 33.5668C45.0846 33.9503 44.4004 34.142 43.5813 34.142C42.8806 34.142 42.2603 33.9882 41.7205 33.6804C41.1855 33.3679 40.7641 32.9062 40.4563 32.2955C40.1533 31.6847 40.0018 30.9295 40.0018 30.0298V23.0909H42.1254V29.7741C42.1254 30.5175 42.3313 31.1094 42.7433 31.5497C43.1552 31.9901 43.6902 32.2102 44.3484 32.2102C44.7461 32.2102 45.1415 32.1108 45.5344 31.9119C45.9322 31.7131 46.2612 31.4124 46.5217 31.0099C46.7868 30.6075 46.917 30.0961 46.9123 29.4759ZM56.9886 23.0909V24.7955H51.0298V23.0909H56.9886ZM52.6278 20.4773H54.7514V30.7969C54.7514 31.2088 54.813 31.5189 54.9361 31.7273C55.0592 31.9309 55.2178 32.0705 55.4119 32.1463C55.6108 32.2173 55.8262 32.2528 56.0582 32.2528C56.2287 32.2528 56.3778 32.241 56.5057 32.2173C56.6335 32.1937 56.733 32.1747 56.804 32.1605L57.1875 33.9148C57.0644 33.9621 56.8892 34.0095 56.6619 34.0568C56.4347 34.1089 56.1506 34.1373 55.8097 34.142C55.2509 34.1515 54.7301 34.0521 54.2472 33.8438C53.7642 33.6354 53.3736 33.3134 53.0753 32.8778C52.777 32.4422 52.6278 31.8954 52.6278 31.2372V20.4773ZM71.5412 29.4759V23.0909H73.6719V34H71.5838V32.1108H71.4702C71.2192 32.6932 70.8168 33.1785 70.2628 33.5668C69.7135 33.9503 69.0294 34.142 68.2102 34.142C67.5095 34.142 66.8892 33.9882 66.3494 33.6804C65.8144 33.3679 65.393 32.9062 65.0852 32.2955C64.7822 31.6847 64.6307 30.9295 64.6307 30.0298V23.0909H66.7543V29.7741C66.7543 30.5175 66.9602 31.1094 67.3722 31.5497C67.7841 31.9901 68.3191 32.2102 68.9773 32.2102C69.375 32.2102 69.7704 32.1108 70.1634 31.9119C70.5611 31.7131 70.8902 31.4124 71.1506 31.0099C71.4157 30.6075 71.5459 30.0961 71.5412 29.4759ZM84.6999 25.7543L82.7752 26.0952C82.6947 25.849 82.5669 25.6146 82.3917 25.392C82.2212 25.1695 81.9892 24.9872 81.6957 24.8452C81.4021 24.7031 81.0352 24.6321 80.5948 24.6321C79.9935 24.6321 79.4916 24.767 79.0891 25.0369C78.6867 25.3021 78.4854 25.6454 78.4854 26.0668C78.4854 26.4313 78.6204 26.7249 78.8903 26.9474C79.1602 27.17 79.5958 27.3523 80.1971 27.4943L81.93 27.892C82.9338 28.1241 83.6819 28.4815 84.1744 28.9645C84.6668 29.4474 84.913 30.0748 84.913 30.8466C84.913 31.5 84.7236 32.0824 84.3448 32.5938C83.9708 33.1004 83.4476 33.4981 82.7752 33.7869C82.1076 34.0758 81.3335 34.2202 80.4528 34.2202C79.2312 34.2202 78.2345 33.9598 77.4627 33.4389C76.6909 32.9134 76.2174 32.1676 76.0423 31.2017L78.0948 30.8892C78.2227 31.4242 78.4854 31.8291 78.8832 32.1037C79.2809 32.3736 79.7994 32.5085 80.4386 32.5085C81.1346 32.5085 81.6909 32.3641 82.1076 32.0753C82.5243 31.7817 82.7326 31.4242 82.7326 31.0028C82.7326 30.6619 82.6048 30.3755 82.3491 30.1435C82.0981 29.9115 81.7122 29.7363 81.1914 29.6179L79.3448 29.2131C78.3268 28.9811 77.574 28.6117 77.0863 28.1051C76.6033 27.5985 76.3619 26.9569 76.3619 26.1804C76.3619 25.5365 76.5418 24.973 76.9016 24.4901C77.2615 24.0071 77.7586 23.6307 78.3931 23.3608C79.0276 23.0862 79.7544 22.9489 80.5735 22.9489C81.7525 22.9489 82.6805 23.2045 83.3576 23.7159C84.0347 24.2225 84.4821 24.902 84.6999 25.7543Z" fill="black"/>
<path d="M143.531 23.2756C143.455 22.6032 143.143 22.0824 142.594 21.7131C142.045 21.339 141.353 21.152 140.52 21.152C139.923 21.152 139.407 21.2467 138.972 21.4361C138.536 21.6207 138.197 21.8764 137.956 22.2031C137.719 22.5251 137.601 22.892 137.601 23.304C137.601 23.6496 137.681 23.9479 137.842 24.1989C138.008 24.4498 138.223 24.6605 138.489 24.831C138.759 24.9967 139.047 25.1364 139.355 25.25C139.663 25.3589 139.959 25.4489 140.243 25.5199L141.663 25.8892C142.127 26.0028 142.603 26.1567 143.091 26.3509C143.579 26.545 144.031 26.8007 144.447 27.1179C144.864 27.4351 145.2 27.8281 145.456 28.2969C145.716 28.7656 145.847 29.3267 145.847 29.9801C145.847 30.804 145.634 31.5355 145.207 32.1747C144.786 32.8139 144.173 33.3182 143.368 33.6875C142.568 34.0568 141.599 34.2415 140.463 34.2415C139.374 34.2415 138.432 34.0687 137.636 33.723C136.841 33.3774 136.218 32.8873 135.768 32.2528C135.319 31.6136 135.07 30.8561 135.023 29.9801H137.224C137.267 30.5057 137.438 30.9437 137.736 31.294C138.039 31.6397 138.425 31.8977 138.893 32.0682C139.367 32.2339 139.885 32.3168 140.449 32.3168C141.069 32.3168 141.621 32.2197 142.104 32.0256C142.591 31.8267 142.975 31.5521 143.254 31.2017C143.534 30.8466 143.673 30.4323 143.673 29.9588C143.673 29.5279 143.55 29.1752 143.304 28.9006C143.063 28.6259 142.733 28.3987 142.317 28.2188C141.905 28.0388 141.438 27.8802 140.918 27.7429L139.199 27.2741C138.034 26.9569 137.111 26.4905 136.429 25.875C135.752 25.2595 135.413 24.4451 135.413 23.4318C135.413 22.5937 135.641 21.8622 136.095 21.2372C136.55 20.6122 137.165 20.1269 137.942 19.7812C138.718 19.4309 139.594 19.2557 140.57 19.2557C141.554 19.2557 142.423 19.4285 143.176 19.7741C143.934 20.1198 144.53 20.5956 144.966 21.2017C145.402 21.803 145.629 22.4943 145.648 23.2756H143.531ZM148.299 34V23.0909H150.422V34H148.299ZM149.371 21.4077C149.002 21.4077 148.685 21.2846 148.419 21.0384C148.159 20.7874 148.029 20.4891 148.029 20.1435C148.029 19.7931 148.159 19.4948 148.419 19.2486C148.685 18.9976 149.002 18.8722 149.371 18.8722C149.74 18.8722 150.055 18.9976 150.316 19.2486C150.581 19.4948 150.713 19.7931 150.713 20.1435C150.713 20.4891 150.581 20.7874 150.316 21.0384C150.055 21.2846 149.74 21.4077 149.371 21.4077ZM157.853 38.3182C156.987 38.3182 156.241 38.2045 155.616 37.9773C154.996 37.75 154.489 37.4493 154.096 37.0753C153.703 36.7012 153.409 36.2917 153.215 35.8466L155.04 35.0938C155.168 35.3021 155.339 35.5223 155.552 35.7543C155.77 35.991 156.063 36.1922 156.433 36.358C156.807 36.5237 157.287 36.6065 157.874 36.6065C158.679 36.6065 159.344 36.41 159.87 36.017C160.396 35.6288 160.658 35.0085 160.658 34.1562V32.0114H160.523C160.396 32.2434 160.211 32.5014 159.969 32.7855C159.733 33.0696 159.406 33.3158 158.989 33.5241C158.573 33.7325 158.031 33.8366 157.363 33.8366C156.501 33.8366 155.725 33.6354 155.033 33.233C154.347 32.8258 153.802 32.2268 153.4 31.4361C153.002 30.6406 152.803 29.6629 152.803 28.5028C152.803 27.3428 153 26.3485 153.393 25.5199C153.79 24.6913 154.335 24.0568 155.026 23.6165C155.718 23.1714 156.501 22.9489 157.377 22.9489C158.054 22.9489 158.601 23.0625 159.018 23.2898C159.434 23.5123 159.759 23.7727 159.991 24.071C160.228 24.3693 160.41 24.6321 160.538 24.8594H160.694V23.0909H162.775V34.2415C162.775 35.179 162.557 35.9484 162.121 36.5497C161.686 37.151 161.096 37.5961 160.353 37.8849C159.614 38.1738 158.781 38.3182 157.853 38.3182ZM157.832 32.0753C158.442 32.0753 158.959 31.9332 159.38 31.6491C159.806 31.3603 160.128 30.9484 160.346 30.4134C160.568 29.8736 160.68 29.2273 160.68 28.4744C160.68 27.7405 160.571 27.0942 160.353 26.5355C160.135 25.9768 159.816 25.5412 159.394 25.2287C158.973 24.9115 158.452 24.7528 157.832 24.7528C157.192 24.7528 156.66 24.9186 156.234 25.25C155.808 25.5767 155.486 26.0218 155.268 26.5852C155.055 27.1487 154.948 27.7784 154.948 28.4744C154.948 29.1894 155.057 29.8168 155.275 30.3565C155.493 30.8963 155.815 31.3177 156.241 31.6207C156.672 31.9238 157.202 32.0753 157.832 32.0753ZM167.746 27.5227V34H165.623V23.0909H167.661V24.8665H167.796C168.047 24.2888 168.44 23.8248 168.975 23.4744C169.515 23.1241 170.194 22.9489 171.013 22.9489C171.757 22.9489 172.408 23.1051 172.967 23.4176C173.525 23.7254 173.959 24.1847 174.266 24.7955C174.574 25.4062 174.728 26.1615 174.728 27.0611V34H172.604V27.3168C172.604 26.526 172.398 25.9081 171.987 25.4631C171.575 25.0133 171.009 24.7884 170.289 24.7884C169.797 24.7884 169.359 24.8949 168.975 25.108C168.596 25.321 168.296 25.6335 168.073 26.0455C167.855 26.4527 167.746 26.9451 167.746 27.5227ZM189.779 29.4759V23.0909H191.91V34H189.822V32.1108H189.708C189.458 32.6932 189.055 33.1785 188.501 33.5668C187.952 33.9503 187.268 34.142 186.449 34.142C185.748 34.142 185.127 33.9882 184.588 33.6804C184.053 33.3679 183.631 32.9062 183.324 32.2955C183.02 31.6847 182.869 30.9295 182.869 30.0298V23.0909H184.993V29.7741C184.993 30.5175 185.199 31.1094 185.61 31.5497C186.022 31.9901 186.557 32.2102 187.216 32.2102C187.613 32.2102 188.009 32.1108 188.402 31.9119C188.799 31.7131 189.128 31.4124 189.389 31.0099C189.654 30.6075 189.784 30.0961 189.779 29.4759ZM194.763 38.0909V23.0909H196.837V24.8594H197.015C197.138 24.6321 197.316 24.3693 197.548 24.071C197.78 23.7727 198.102 23.5123 198.513 23.2898C198.925 23.0625 199.47 22.9489 200.147 22.9489C201.028 22.9489 201.814 23.1714 202.505 23.6165C203.196 24.0616 203.738 24.7031 204.131 25.5412C204.529 26.3793 204.728 27.3878 204.728 28.5668C204.728 29.7457 204.531 30.7566 204.138 31.5994C203.746 32.4375 203.206 33.0838 202.519 33.5384C201.833 33.9882 201.049 34.2131 200.168 34.2131C199.505 34.2131 198.963 34.1018 198.542 33.8793C198.125 33.6567 197.799 33.3963 197.562 33.098C197.325 32.7997 197.143 32.5346 197.015 32.3026H196.887V38.0909H194.763ZM196.844 28.5455C196.844 29.3125 196.956 29.9848 197.178 30.5625C197.401 31.1402 197.723 31.5923 198.144 31.919C198.566 32.241 199.082 32.402 199.692 32.402C200.327 32.402 200.857 32.2339 201.283 31.8977C201.71 31.5568 202.031 31.0952 202.249 30.5128C202.472 29.9304 202.583 29.2746 202.583 28.5455C202.583 27.8258 202.474 27.1795 202.256 26.6065C202.043 26.0336 201.721 25.5814 201.29 25.25C200.864 24.9186 200.332 24.7528 199.692 24.7528C199.077 24.7528 198.556 24.9115 198.13 25.2287C197.709 25.5459 197.389 25.9886 197.171 26.5568C196.953 27.125 196.844 27.7879 196.844 28.5455Z" fill="black"/>
<g filter="url(#filter0_d_2_125)">
<rect x="254" y="1" width="95" height="52" rx="8" fill="black" shape-rendering="crispEdges"/>
<path d="M279.278 33V21.3636H281.034V31.4886H286.307V33H279.278ZM291.849 33.1761C291.031 33.1761 290.317 32.9886 289.707 32.6136C289.098 32.2386 288.624 31.714 288.287 31.0398C287.95 30.3655 287.781 29.5777 287.781 28.6761C287.781 27.7708 287.95 26.9792 288.287 26.3011C288.624 25.6231 289.098 25.0966 289.707 24.7216C290.317 24.3466 291.031 24.1591 291.849 24.1591C292.668 24.1591 293.382 24.3466 293.991 24.7216C294.601 25.0966 295.075 25.6231 295.412 26.3011C295.749 26.9792 295.918 27.7708 295.918 28.6761C295.918 29.5777 295.749 30.3655 295.412 31.0398C295.075 31.714 294.601 32.2386 293.991 32.6136C293.382 32.9886 292.668 33.1761 291.849 33.1761ZM291.855 31.75C292.385 31.75 292.825 31.6098 293.173 31.3295C293.522 31.0492 293.779 30.6761 293.946 30.2102C294.116 29.7443 294.202 29.2311 294.202 28.6705C294.202 28.1136 294.116 27.6023 293.946 27.1364C293.779 26.6667 293.522 26.2898 293.173 26.0057C292.825 25.7216 292.385 25.5795 291.855 25.5795C291.321 25.5795 290.878 25.7216 290.526 26.0057C290.177 26.2898 289.918 26.6667 289.747 27.1364C289.58 27.6023 289.497 28.1136 289.497 28.6705C289.497 29.2311 289.58 29.7443 289.747 30.2102C289.918 30.6761 290.177 31.0492 290.526 31.3295C290.878 31.6098 291.321 31.75 291.855 31.75ZM301.473 36.4545C300.78 36.4545 300.183 36.3636 299.683 36.1818C299.187 36 298.782 35.7595 298.467 35.4602C298.153 35.161 297.918 34.8333 297.763 34.4773L299.223 33.875C299.325 34.0417 299.462 34.2178 299.632 34.4034C299.806 34.5928 300.041 34.7538 300.337 34.8864C300.636 35.0189 301.02 35.0852 301.49 35.0852C302.134 35.0852 302.666 34.928 303.087 34.6136C303.507 34.303 303.717 33.8068 303.717 33.125V31.4091H303.609C303.507 31.5947 303.359 31.8011 303.166 32.0284C302.977 32.2557 302.715 32.4527 302.382 32.6193C302.049 32.786 301.615 32.8693 301.081 32.8693C300.392 32.8693 299.77 32.7083 299.217 32.3864C298.668 32.0606 298.232 31.5814 297.911 30.9489C297.592 30.3125 297.433 29.5303 297.433 28.6023C297.433 27.6742 297.59 26.8788 297.905 26.2159C298.223 25.553 298.659 25.0455 299.212 24.6932C299.765 24.3371 300.392 24.1591 301.092 24.1591C301.634 24.1591 302.071 24.25 302.405 24.4318C302.738 24.6098 302.998 24.8182 303.183 25.0568C303.373 25.2955 303.518 25.5057 303.621 25.6875H303.746V24.2727H305.411V33.1932C305.411 33.9432 305.236 34.5587 304.888 35.0398C304.539 35.5208 304.068 35.8769 303.473 36.108C302.882 36.339 302.215 36.4545 301.473 36.4545ZM301.456 31.4602C301.945 31.4602 302.357 31.3466 302.695 31.1193C303.036 30.8883 303.293 30.5587 303.467 30.1307C303.645 29.6989 303.734 29.1818 303.734 28.5795C303.734 27.9924 303.647 27.4754 303.473 27.0284C303.299 26.5814 303.043 26.233 302.706 25.983C302.369 25.7292 301.952 25.6023 301.456 25.6023C300.945 25.6023 300.518 25.7348 300.178 26C299.837 26.2614 299.579 26.6174 299.405 27.0682C299.234 27.5189 299.149 28.0227 299.149 28.5795C299.149 29.1515 299.236 29.6534 299.411 30.0852C299.585 30.517 299.842 30.8542 300.183 31.0966C300.528 31.339 300.952 31.4602 301.456 31.4602ZM311.923 33V24.2727H313.622V33H311.923ZM312.781 22.9261C312.486 22.9261 312.232 22.8277 312.02 22.6307C311.812 22.4299 311.707 22.1913 311.707 21.9148C311.707 21.6345 311.812 21.3958 312.02 21.1989C312.232 20.9981 312.486 20.8977 312.781 20.8977C313.077 20.8977 313.329 20.9981 313.537 21.1989C313.749 21.3958 313.855 21.6345 313.855 21.9148C313.855 22.1913 313.749 22.4299 313.537 22.6307C313.329 22.8277 313.077 22.9261 312.781 22.9261ZM317.607 27.8182V33H315.908V24.2727H317.538V25.6932H317.646C317.847 25.2311 318.161 24.8598 318.589 24.5795C319.021 24.2992 319.565 24.1591 320.22 24.1591C320.815 24.1591 321.336 24.2841 321.783 24.5341C322.23 24.7803 322.576 25.1477 322.822 25.6364C323.069 26.125 323.192 26.7292 323.192 27.4489V33H321.493V27.6534C321.493 27.0208 321.328 26.5265 320.999 26.1705C320.669 25.8106 320.216 25.6307 319.641 25.6307C319.247 25.6307 318.896 25.7159 318.589 25.8864C318.286 26.0568 318.046 26.3068 317.868 26.6364C317.694 26.9621 317.607 27.3561 317.607 27.8182Z" fill="white"/>
</g>
<defs>
<filter id="filter0_d_2_125" x="252" y="0" width="99" height="56" filterUnits="userSpaceOnUse" color-interpolation-filters="sRGB">
<feFlood flood-opacity="0" result="BackgroundImageFix"/>
<feColorMatrix in="SourceAlpha" type="matrix" values="0 0 0 0 0 0 0 0 0 0 0 0 0 0 0 0 0 0 127 0" result="hardAlpha"/>
<feOffset dy="1"/>
<feGaussianBlur stdDeviation="1"/>
<feComposite in2="hardAlpha" operator="out"/>
<feColorMatrix type="matrix" values="0 0 0 0 0 0 0 0 0 0 0 0 0 0 0 0 0 0 0.05 0"/>
<feBlend mode="normal" in2="BackgroundImageFix" result="effect1_dropShadow_2_125"/>
<feBlend mode="normal" in="SourceGraphic" in2="effect1_dropShadow_2_125" result="shape"/>
</filter>
</defs>
</svg>
