<svg width="1062" height="182" viewBox="0 0 1062 182" fill="none" xmlns="http://www.w3.org/2000/svg">
<path d="M885.943 24.1477H884.17C884.102 23.7689 883.975 23.4356 883.79 23.1477C883.604 22.8598 883.377 22.6155 883.108 22.4148C882.839 22.214 882.538 22.0625 882.205 21.9602C881.875 21.858 881.525 21.8068 881.153 21.8068C880.483 21.8068 879.883 21.9754 879.352 22.3125C878.826 22.6496 878.409 23.1439 878.102 23.7955C877.799 24.447 877.648 25.2424 877.648 26.1818C877.648 27.1288 877.799 27.928 878.102 28.5795C878.409 29.2311 878.828 29.7235 879.358 30.0568C879.888 30.3902 880.485 30.5568 881.148 30.5568C881.515 30.5568 881.864 30.5076 882.193 30.4091C882.527 30.3068 882.828 30.1572 883.097 29.9602C883.366 29.7633 883.593 29.5227 883.778 29.2386C883.968 28.9508 884.098 28.6212 884.17 28.25L885.943 28.2557C885.848 28.8277 885.665 29.3542 885.392 29.8352C885.123 30.3125 884.777 30.7254 884.352 31.0739C883.932 31.4186 883.451 31.6856 882.909 31.875C882.367 32.0644 881.777 32.1591 881.136 32.1591C880.129 32.1591 879.231 31.9205 878.443 31.4432C877.655 30.9621 877.034 30.2746 876.58 29.3807C876.129 28.4867 875.903 27.4205 875.903 26.1818C875.903 24.9394 876.131 23.8731 876.585 22.983C877.04 22.089 877.661 21.4034 878.449 20.9261C879.237 20.4451 880.133 20.2045 881.136 20.2045C881.754 20.2045 882.33 20.2936 882.864 20.4716C883.402 20.6458 883.884 20.9034 884.312 21.2443C884.741 21.5814 885.095 21.9943 885.375 22.483C885.655 22.9678 885.845 23.5227 885.943 24.1477ZM888.949 32H887.085L891.273 20.3636H893.301L897.489 32H895.625L892.335 22.4773H892.244L888.949 32ZM889.261 27.4432H895.307V28.9205H889.261V27.4432ZM899.169 20.3636H901.3L905.004 29.4091H905.141L908.845 20.3636H910.976V32H909.305V23.5795H909.197L905.766 31.983H904.379L900.947 23.5739H900.839V32H899.169V20.3636ZM913.528 32V20.3636H920.824V21.875H915.284V25.4205H920.443V26.9261H915.284V30.4886H920.892V32H913.528ZM923.169 32V20.3636H927.317C928.218 20.3636 928.966 20.5189 929.561 20.8295C930.16 21.1402 930.607 21.5701 930.902 22.1193C931.197 22.6648 931.345 23.2955 931.345 24.0114C931.345 24.7235 931.196 25.3504 930.896 25.892C930.601 26.4299 930.154 26.8485 929.555 27.1477C928.961 27.447 928.213 27.5966 927.311 27.5966H924.169V26.0852H927.152C927.72 26.0852 928.182 26.0038 928.538 25.8409C928.898 25.678 929.161 25.4413 929.328 25.1307C929.495 24.8201 929.578 24.447 929.578 24.0114C929.578 23.572 929.493 23.1913 929.322 22.8693C929.156 22.5473 928.893 22.3011 928.533 22.1307C928.177 21.9564 927.709 21.8693 927.129 21.8693H924.925V32H923.169ZM928.913 26.75L931.788 32H929.788L926.97 26.75H928.913ZM934.464 32H932.601L936.788 20.3636H938.817L943.004 32H941.141L937.851 22.4773H937.76L934.464 32ZM934.777 27.4432H940.822V28.9205H934.777V27.4432ZM950.938 23.4205C950.877 22.8826 950.627 22.4659 950.188 22.1705C949.748 21.8712 949.195 21.7216 948.528 21.7216C948.051 21.7216 947.638 21.7973 947.29 21.9489C946.941 22.0966 946.67 22.3011 946.477 22.5625C946.288 22.8201 946.193 23.1136 946.193 23.4432C946.193 23.7197 946.258 23.9583 946.386 24.1591C946.519 24.3598 946.691 24.5284 946.903 24.6648C947.119 24.7973 947.35 24.9091 947.597 25C947.843 25.0871 948.08 25.1591 948.307 25.2159L949.443 25.5114C949.814 25.6023 950.195 25.7254 950.585 25.8807C950.975 26.036 951.337 26.2405 951.67 26.4943C952.004 26.7481 952.273 27.0625 952.477 27.4375C952.686 27.8125 952.79 28.2614 952.79 28.7841C952.79 29.4432 952.619 30.0284 952.278 30.5398C951.941 31.0511 951.451 31.4545 950.807 31.75C950.167 32.0455 949.392 32.1932 948.483 32.1932C947.612 32.1932 946.858 32.0549 946.222 31.7784C945.585 31.5019 945.087 31.1098 944.727 30.6023C944.367 30.0909 944.169 29.4848 944.131 28.7841H945.892C945.926 29.2045 946.063 29.5549 946.301 29.8352C946.544 30.1117 946.852 30.3182 947.227 30.4545C947.606 30.5871 948.021 30.6534 948.472 30.6534C948.968 30.6534 949.409 30.5758 949.795 30.4205C950.186 30.2614 950.492 30.0417 950.716 29.7614C950.939 29.4773 951.051 29.1458 951.051 28.767C951.051 28.4223 950.953 28.1402 950.756 27.9205C950.563 27.7008 950.299 27.5189 949.966 27.375C949.636 27.2311 949.263 27.1042 948.847 26.9943L947.472 26.6193C946.54 26.3655 945.801 25.9924 945.256 25.5C944.714 25.0076 944.443 24.3561 944.443 23.5455C944.443 22.875 944.625 22.2898 944.989 21.7898C945.352 21.2898 945.845 20.9015 946.466 20.625C947.087 20.3447 947.788 20.2045 948.568 20.2045C949.356 20.2045 950.051 20.3428 950.653 20.6193C951.259 20.8958 951.737 21.2765 952.085 21.7614C952.434 22.2424 952.616 22.7955 952.631 23.4205H950.938Z" fill="black"/>
<path d="M885.67 68.3636V80H884.057L878.142 71.4659H878.034V80H876.278V68.3636H877.903L883.824 76.9091H883.932V68.3636H885.67ZM889.987 68.3636V80H888.232V68.3636H889.987ZM892.544 80V68.3636H894.3V73.9205H894.442L899.322 68.3636H901.533L896.839 73.6023L901.55 80H899.436L895.675 74.8011L894.3 76.3807V80H892.544ZM912.699 74.1818C912.699 75.4242 912.472 76.4924 912.017 77.3864C911.563 78.2765 910.939 78.9621 910.148 79.4432C909.36 79.9205 908.464 80.1591 907.46 80.1591C906.453 80.1591 905.553 79.9205 904.761 79.4432C903.973 78.9621 903.352 78.2746 902.898 77.3807C902.443 76.4867 902.216 75.4205 902.216 74.1818C902.216 72.9394 902.443 71.8731 902.898 70.983C903.352 70.089 903.973 69.4034 904.761 68.9261C905.553 68.4451 906.453 68.2045 907.46 68.2045C908.464 68.2045 909.36 68.4451 910.148 68.9261C910.939 69.4034 911.563 70.089 912.017 70.983C912.472 71.8731 912.699 72.9394 912.699 74.1818ZM910.96 74.1818C910.96 73.2348 910.807 72.4375 910.5 71.7898C910.197 71.1383 909.78 70.6458 909.25 70.3125C908.723 69.9754 908.127 69.8068 907.46 69.8068C906.79 69.8068 906.191 69.9754 905.665 70.3125C905.138 70.6458 904.722 71.1383 904.415 71.7898C904.112 72.4375 903.96 73.2348 903.96 74.1818C903.96 75.1288 904.112 75.928 904.415 76.5795C904.722 77.2273 905.138 77.7197 905.665 78.0568C906.191 78.3902 906.79 78.5568 907.46 78.5568C908.127 78.5568 908.723 78.3902 909.25 78.0568C909.78 77.7197 910.197 77.2273 910.5 76.5795C910.807 75.928 910.96 75.1288 910.96 74.1818ZM924.28 68.3636V80H922.666L916.751 71.4659H916.643V80H914.888V68.3636H916.513L922.433 76.9091H922.541V68.3636H924.28Z" fill="#454545"/>
<path d="M882.625 119.42C882.564 118.883 882.314 118.466 881.875 118.17C881.436 117.871 880.883 117.722 880.216 117.722C879.739 117.722 879.326 117.797 878.977 117.949C878.629 118.097 878.358 118.301 878.165 118.562C877.975 118.82 877.881 119.114 877.881 119.443C877.881 119.72 877.945 119.958 878.074 120.159C878.206 120.36 878.379 120.528 878.591 120.665C878.807 120.797 879.038 120.909 879.284 121C879.53 121.087 879.767 121.159 879.994 121.216L881.131 121.511C881.502 121.602 881.883 121.725 882.273 121.881C882.663 122.036 883.025 122.241 883.358 122.494C883.691 122.748 883.96 123.062 884.165 123.438C884.373 123.812 884.477 124.261 884.477 124.784C884.477 125.443 884.307 126.028 883.966 126.54C883.629 127.051 883.138 127.455 882.494 127.75C881.854 128.045 881.08 128.193 880.17 128.193C879.299 128.193 878.545 128.055 877.909 127.778C877.273 127.502 876.775 127.11 876.415 126.602C876.055 126.091 875.856 125.485 875.818 124.784H877.58C877.614 125.205 877.75 125.555 877.989 125.835C878.231 126.112 878.54 126.318 878.915 126.455C879.294 126.587 879.708 126.653 880.159 126.653C880.655 126.653 881.097 126.576 881.483 126.42C881.873 126.261 882.18 126.042 882.403 125.761C882.627 125.477 882.739 125.146 882.739 124.767C882.739 124.422 882.64 124.14 882.443 123.92C882.25 123.701 881.987 123.519 881.653 123.375C881.324 123.231 880.951 123.104 880.534 122.994L879.159 122.619C878.227 122.366 877.489 121.992 876.943 121.5C876.402 121.008 876.131 120.356 876.131 119.545C876.131 118.875 876.313 118.29 876.676 117.79C877.04 117.29 877.532 116.902 878.153 116.625C878.775 116.345 879.475 116.205 880.256 116.205C881.044 116.205 881.739 116.343 882.341 116.619C882.947 116.896 883.424 117.277 883.773 117.761C884.121 118.242 884.303 118.795 884.318 119.42H882.625ZM896.683 122.182C896.683 123.424 896.456 124.492 896.001 125.386C895.547 126.277 894.924 126.962 894.132 127.443C893.344 127.92 892.448 128.159 891.445 128.159C890.437 128.159 889.537 127.92 888.746 127.443C887.958 126.962 887.337 126.275 886.882 125.381C886.428 124.487 886.2 123.42 886.2 122.182C886.2 120.939 886.428 119.873 886.882 118.983C887.337 118.089 887.958 117.403 888.746 116.926C889.537 116.445 890.437 116.205 891.445 116.205C892.448 116.205 893.344 116.445 894.132 116.926C894.924 117.403 895.547 118.089 896.001 118.983C896.456 119.873 896.683 120.939 896.683 122.182ZM894.945 122.182C894.945 121.235 894.791 120.437 894.484 119.79C894.181 119.138 893.765 118.646 893.234 118.312C892.708 117.975 892.111 117.807 891.445 117.807C890.774 117.807 890.176 117.975 889.649 118.312C889.123 118.646 888.706 119.138 888.399 119.79C888.096 120.437 887.945 121.235 887.945 122.182C887.945 123.129 888.096 123.928 888.399 124.58C888.706 125.227 889.123 125.72 889.649 126.057C890.176 126.39 890.774 126.557 891.445 126.557C892.111 126.557 892.708 126.39 893.234 126.057C893.765 125.72 894.181 125.227 894.484 124.58C894.791 123.928 894.945 123.129 894.945 122.182ZM908.264 116.364V128H906.651L900.736 119.466H900.628V128H898.872V116.364H900.497L906.418 124.909H906.526V116.364H908.264ZM909.928 116.364H911.922L914.962 121.653H915.087L918.126 116.364H920.121L915.899 123.432V128H914.149V123.432L909.928 116.364Z" fill="#454545"/>
<path d="M876.278 176V164.364H883.494V165.875H878.034V169.42H882.977V170.926H878.034V176H876.278ZM893.136 164.364H894.898V172.017C894.898 172.831 894.706 173.553 894.324 174.182C893.941 174.807 893.403 175.299 892.71 175.659C892.017 176.015 891.205 176.193 890.273 176.193C889.345 176.193 888.534 176.015 887.841 175.659C887.148 175.299 886.61 174.807 886.227 174.182C885.845 173.553 885.653 172.831 885.653 172.017V164.364H887.409V171.875C887.409 172.402 887.525 172.869 887.756 173.278C887.991 173.688 888.322 174.009 888.75 174.244C889.178 174.475 889.686 174.591 890.273 174.591C890.864 174.591 891.373 174.475 891.801 174.244C892.233 174.009 892.563 173.688 892.79 173.278C893.021 172.869 893.136 172.402 893.136 171.875V164.364ZM901.973 164.364H903.723V172.614C903.723 173.36 903.575 173.998 903.28 174.528C902.988 175.059 902.577 175.464 902.047 175.744C901.517 176.021 900.895 176.159 900.183 176.159C899.528 176.159 898.939 176.04 898.416 175.801C897.897 175.562 897.486 175.216 897.183 174.761C896.884 174.303 896.734 173.746 896.734 173.091H898.479C898.479 173.413 898.553 173.691 898.7 173.926C898.852 174.161 899.058 174.345 899.32 174.477C899.585 174.606 899.888 174.67 900.229 174.67C900.6 174.67 900.914 174.593 901.172 174.438C901.433 174.278 901.632 174.045 901.768 173.739C901.905 173.432 901.973 173.057 901.973 172.614V164.364ZM908.034 164.364V176H906.278V164.364H908.034ZM910.591 176V164.364H917.807V165.875H912.347V169.42H917.29V170.926H912.347V176H910.591ZM921.722 164.364V176H919.966V164.364H921.722ZM924.278 176V164.364H926.034V174.489H931.307V176H924.278ZM933.31 164.364H935.44L939.145 173.409H939.281L942.986 164.364H945.116V176H943.446V167.58H943.338L939.906 175.983H938.52L935.088 167.574H934.98V176H933.31V164.364Z" fill="#454545"/>
<path d="M2.11364 27V9.54545H8.01136C9.375 9.54545 10.4943 9.77841 11.3693 10.2443C12.2443 10.7045 12.892 11.3381 13.3125 12.1449C13.733 12.9517 13.9432 13.8693 13.9432 14.8977C13.9432 15.9261 13.733 16.8381 13.3125 17.6335C12.892 18.429 12.2472 19.054 11.3778 19.5085C10.5085 19.9574 9.39773 20.1818 8.04545 20.1818H3.27273V18.2727H7.97727C8.90909 18.2727 9.65909 18.1364 10.2273 17.8636C10.8011 17.5909 11.2159 17.2045 11.4716 16.7045C11.733 16.1989 11.8636 15.5966 11.8636 14.8977C11.8636 14.1989 11.733 13.5881 11.4716 13.0653C11.2102 12.5426 10.7926 12.1392 10.2188 11.8551C9.64489 11.5653 8.88636 11.4205 7.94318 11.4205H4.22727V27H2.11364ZM10.3295 19.1591L14.625 27H12.1705L7.94318 19.1591H10.3295ZM19.5788 9.54545V27H17.4652V9.54545H19.5788ZM37.8622 15H35.7486C35.6236 14.392 35.4048 13.858 35.0923 13.3977C34.7855 12.9375 34.4105 12.5511 33.9673 12.2386C33.5298 11.9205 33.044 11.6818 32.5099 11.5227C31.9759 11.3636 31.419 11.2841 30.8395 11.2841C29.7827 11.2841 28.8253 11.5511 27.9673 12.0852C27.1151 12.6193 26.4361 13.4062 25.9304 14.446C25.4304 15.4858 25.1804 16.7614 25.1804 18.2727C25.1804 19.7841 25.4304 21.0597 25.9304 22.0994C26.4361 23.1392 27.1151 23.9261 27.9673 24.4602C28.8253 24.9943 29.7827 25.2614 30.8395 25.2614C31.419 25.2614 31.9759 25.1818 32.5099 25.0227C33.044 24.8636 33.5298 24.6278 33.9673 24.3153C34.4105 23.9972 34.7855 23.608 35.0923 23.1477C35.4048 22.6818 35.6236 22.1477 35.7486 21.5455H37.8622C37.7031 22.4375 37.4134 23.2358 36.9929 23.9403C36.5724 24.6449 36.0497 25.2443 35.4247 25.7386C34.7997 26.2273 34.098 26.5994 33.3196 26.8551C32.5469 27.1108 31.7202 27.2386 30.8395 27.2386C29.3509 27.2386 28.027 26.875 26.8679 26.1477C25.7088 25.4205 24.7969 24.3864 24.1321 23.0455C23.4673 21.7045 23.1349 20.1136 23.1349 18.2727C23.1349 16.4318 23.4673 14.8409 24.1321 13.5C24.7969 12.1591 25.7088 11.125 26.8679 10.3977C28.027 9.67045 29.3509 9.30682 30.8395 9.30682C31.7202 9.30682 32.5469 9.43466 33.3196 9.69034C34.098 9.94602 34.7997 10.321 35.4247 10.8153C36.0497 11.304 36.5724 11.9006 36.9929 12.6051C37.4134 13.304 37.7031 14.1023 37.8622 15ZM41.2777 27V9.54545H43.3913V18.2045H43.5959L51.4368 9.54545H54.1982L46.8686 17.4205L54.1982 27H51.6413L45.5732 18.8864L43.3913 21.3409V27H41.2777ZM77.7294 15H75.6158C75.4908 14.392 75.272 13.858 74.9595 13.3977C74.6527 12.9375 74.2777 12.5511 73.8345 12.2386C73.397 11.9205 72.9112 11.6818 72.3771 11.5227C71.843 11.3636 71.2862 11.2841 70.7067 11.2841C69.6499 11.2841 68.6925 11.5511 67.8345 12.0852C66.9822 12.6193 66.3033 13.4062 65.7976 14.446C65.2976 15.4858 65.0476 16.7614 65.0476 18.2727C65.0476 19.7841 65.2976 21.0597 65.7976 22.0994C66.3033 23.1392 66.9822 23.9261 67.8345 24.4602C68.6925 24.9943 69.6499 25.2614 70.7067 25.2614C71.2862 25.2614 71.843 25.1818 72.3771 25.0227C72.9112 24.8636 73.397 24.6278 73.8345 24.3153C74.2777 23.9972 74.6527 23.608 74.9595 23.1477C75.272 22.6818 75.4908 22.1477 75.6158 21.5455H77.7294C77.5703 22.4375 77.2805 23.2358 76.8601 23.9403C76.4396 24.6449 75.9169 25.2443 75.2919 25.7386C74.6669 26.2273 73.9652 26.5994 73.1868 26.8551C72.4141 27.1108 71.5874 27.2386 70.7067 27.2386C69.218 27.2386 67.8942 26.875 66.7351 26.1477C65.576 25.4205 64.6641 24.3864 63.9993 23.0455C63.3345 21.7045 63.0021 20.1136 63.0021 18.2727C63.0021 16.4318 63.3345 14.8409 63.9993 13.5C64.6641 12.1591 65.576 11.125 66.7351 10.3977C67.8942 9.67045 69.218 9.30682 70.7067 9.30682C71.5874 9.30682 72.4141 9.43466 73.1868 9.69034C73.9652 9.94602 74.6669 10.321 75.2919 10.8153C75.9169 11.304 76.4396 11.9006 76.8601 12.6051C77.2805 13.304 77.5703 14.1023 77.7294 15ZM81.8608 27H79.6449L86.054 9.54545H88.2358L94.6449 27H92.429L87.2131 12.3068H87.0767L81.8608 27ZM82.679 20.1818H91.6108V22.0568H82.679V20.1818ZM97.3636 9.54545H99.8864L105.818 24.0341H106.023L111.955 9.54545H114.477V27H112.5V13.7386H112.33L106.875 27H104.966L99.5114 13.7386H99.3409V27H97.3636V9.54545ZM118.715 27V9.54545H129.249V11.4205H120.829V17.3182H128.704V19.1932H120.829V25.125H129.386V27H118.715ZM133.059 27V9.54545H138.957C140.32 9.54545 141.44 9.77841 142.315 10.2443C143.19 10.7045 143.837 11.3381 144.258 12.1449C144.678 12.9517 144.888 13.8693 144.888 14.8977C144.888 15.9261 144.678 16.8381 144.258 17.6335C143.837 18.429 143.192 19.054 142.323 19.5085C141.454 19.9574 140.343 20.1818 138.991 20.1818H134.218V18.2727H138.923C139.854 18.2727 140.604 18.1364 141.173 17.8636C141.746 17.5909 142.161 17.2045 142.417 16.7045C142.678 16.1989 142.809 15.5966 142.809 14.8977C142.809 14.1989 142.678 13.5881 142.417 13.0653C142.156 12.5426 141.738 12.1392 141.164 11.8551C140.59 11.5653 139.832 11.4205 138.888 11.4205H135.173V27H133.059ZM141.275 19.1591L145.57 27H143.116L138.888 19.1591H141.275ZM149.126 27H146.911L153.32 9.54545H155.501L161.911 27H159.695L154.479 12.3068H154.342L149.126 27ZM149.945 20.1818H158.876V22.0568H149.945V20.1818ZM180.925 13.9091C180.822 13.0455 180.408 12.375 179.68 11.8977C178.953 11.4205 178.061 11.1818 177.004 11.1818C176.232 11.1818 175.555 11.3068 174.976 11.5568C174.402 11.8068 173.953 12.1506 173.629 12.5881C173.311 13.0256 173.152 13.5227 173.152 14.0795C173.152 14.5455 173.263 14.946 173.484 15.2812C173.712 15.6108 174.001 15.8864 174.354 16.108C174.706 16.3239 175.075 16.5028 175.462 16.6449C175.848 16.7812 176.203 16.892 176.527 16.9773L178.3 17.4545C178.754 17.5739 179.26 17.7386 179.817 17.9489C180.379 18.1591 180.916 18.446 181.428 18.8097C181.945 19.1676 182.371 19.6278 182.706 20.1903C183.041 20.7528 183.209 21.4432 183.209 22.2614C183.209 23.2045 182.962 24.0568 182.467 24.8182C181.979 25.5795 181.263 26.1847 180.32 26.6335C179.382 27.0824 178.243 27.3068 176.902 27.3068C175.652 27.3068 174.57 27.1051 173.655 26.7017C172.746 26.2983 172.03 25.7358 171.507 25.0142C170.99 24.2926 170.697 23.4545 170.629 22.5H172.811C172.868 23.1591 173.089 23.7045 173.476 24.1364C173.868 24.5625 174.362 24.8807 174.959 25.0909C175.561 25.2955 176.209 25.3977 176.902 25.3977C177.709 25.3977 178.433 25.267 179.075 25.0057C179.717 24.7386 180.226 24.3693 180.601 23.8977C180.976 23.4205 181.163 22.8636 181.163 22.2273C181.163 21.6477 181.001 21.1761 180.678 20.8125C180.354 20.4489 179.928 20.1534 179.399 19.9261C178.871 19.6989 178.3 19.5 177.686 19.3295L175.538 18.7159C174.175 18.3239 173.095 17.7642 172.3 17.0369C171.504 16.3097 171.107 15.358 171.107 14.1818C171.107 13.2045 171.371 12.3523 171.899 11.625C172.433 10.892 173.149 10.3239 174.047 9.92045C174.95 9.51136 175.959 9.30682 177.072 9.30682C178.197 9.30682 179.197 9.50852 180.072 9.91193C180.947 10.3097 181.641 10.8551 182.152 11.5483C182.669 12.2415 182.942 13.0284 182.97 13.9091H180.925ZM185.729 11.4205V9.54545H198.82V11.4205H193.332V27H191.218V11.4205H185.729ZM216.083 18.2727C216.083 20.1136 215.751 21.7045 215.086 23.0455C214.421 24.3864 213.509 25.4205 212.35 26.1477C211.191 26.875 209.867 27.2386 208.379 27.2386C206.89 27.2386 205.566 26.875 204.407 26.1477C203.248 25.4205 202.336 24.3864 201.671 23.0455C201.006 21.7045 200.674 20.1136 200.674 18.2727C200.674 16.4318 201.006 14.8409 201.671 13.5C202.336 12.1591 203.248 11.125 204.407 10.3977C205.566 9.67045 206.89 9.30682 208.379 9.30682C209.867 9.30682 211.191 9.67045 212.35 10.3977C213.509 11.125 214.421 12.1591 215.086 13.5C215.751 14.8409 216.083 16.4318 216.083 18.2727ZM214.038 18.2727C214.038 16.7614 213.785 15.4858 213.279 14.446C212.779 13.4062 212.1 12.6193 211.242 12.0852C210.39 11.5511 209.435 11.2841 208.379 11.2841C207.322 11.2841 206.364 11.5511 205.506 12.0852C204.654 12.6193 203.975 13.4062 203.469 14.446C202.969 15.4858 202.719 16.7614 202.719 18.2727C202.719 19.7841 202.969 21.0597 203.469 22.0994C203.975 23.1392 204.654 23.9261 205.506 24.4602C206.364 24.9943 207.322 25.2614 208.379 25.2614C209.435 25.2614 210.39 24.9943 211.242 24.4602C212.1 23.9261 212.779 23.1392 213.279 22.0994C213.785 21.0597 214.038 19.7841 214.038 18.2727ZM219.637 27V9.54545H225.535C226.898 9.54545 228.018 9.77841 228.893 10.2443C229.768 10.7045 230.415 11.3381 230.836 12.1449C231.256 12.9517 231.467 13.8693 231.467 14.8977C231.467 15.9261 231.256 16.8381 230.836 17.6335C230.415 18.429 229.771 19.054 228.901 19.5085C228.032 19.9574 226.921 20.1818 225.569 20.1818H220.796V18.2727H225.501C226.433 18.2727 227.183 18.1364 227.751 17.8636C228.325 17.5909 228.739 17.2045 228.995 16.7045C229.256 16.1989 229.387 15.5966 229.387 14.8977C229.387 14.1989 229.256 13.5881 228.995 13.0653C228.734 12.5426 228.316 12.1392 227.742 11.8551C227.168 11.5653 226.41 11.4205 225.467 11.4205H221.751V27H219.637ZM227.853 19.1591L232.148 27H229.694L225.467 19.1591H227.853ZM234.989 27V9.54545H245.523V11.4205H237.102V17.3182H244.977V19.1932H237.102V25.125H245.659V27H234.989Z" fill="black"/>
<path d="M20 152.04C14.5 152.04 10 156.53 10 162.06C10 167.06 13.66 171.21 18.44 171.96V164.96H15.9V162.06H18.44V159.85C18.44 157.34 19.93 155.96 22.22 155.96C23.31 155.96 24.45 156.15 24.45 156.15V158.62H23.19C21.95 158.62 21.56 159.39 21.56 160.18V162.06H24.34L23.89 164.96H21.56V171.96C23.9164 171.588 26.0622 170.386 27.6099 168.57C29.1576 166.755 30.0054 164.446 30 162.06C30 156.53 25.5 152.04 20 152.04Z" fill="#828282"/>
<path d="M75 153C75.5304 153 76.0391 153.211 76.4142 153.586C76.7893 153.961 77 154.47 77 155V169C77 169.53 76.7893 170.039 76.4142 170.414C76.0391 170.789 75.5304 171 75 171H61C60.4696 171 59.9609 170.789 59.5858 170.414C59.2107 170.039 59 169.53 59 169V155C59 154.47 59.2107 153.961 59.5858 153.586C59.9609 153.211 60.4696 153 61 153H75ZM74.5 168.5V163.2C74.5 162.335 74.1565 161.506 73.5452 160.895C72.9338 160.283 72.1046 159.94 71.24 159.94C70.39 159.94 69.4 160.46 68.92 161.24V160.13H66.13V168.5H68.92V163.57C68.92 162.8 69.54 162.17 70.31 162.17C70.6813 162.17 71.0374 162.317 71.2999 162.58C71.5625 162.843 71.71 163.199 71.71 163.57V168.5H74.5ZM62.88 158.56C63.3256 158.56 63.7529 158.383 64.0679 158.068C64.383 157.753 64.56 157.326 64.56 156.88C64.56 155.95 63.81 155.19 62.88 155.19C62.4318 155.19 62.0019 155.368 61.685 155.685C61.3681 156.002 61.19 156.432 61.19 156.88C61.19 157.81 61.95 158.56 62.88 158.56ZM64.27 168.5V160.13H61.5V168.5H64.27Z" fill="#828282"/>
<path d="M114 165L119.19 162L114 159V165ZM125.56 157.17C125.69 157.64 125.78 158.27 125.84 159.07C125.91 159.87 125.94 160.56 125.94 161.16L126 162C126 164.19 125.84 165.8 125.56 166.83C125.31 167.73 124.73 168.31 123.83 168.56C123.36 168.69 122.5 168.78 121.18 168.84C119.88 168.91 118.69 168.94 117.59 168.94L116 169C111.81 169 109.2 168.84 108.17 168.56C107.27 168.31 106.69 167.73 106.44 166.83C106.31 166.36 106.22 165.73 106.16 164.93C106.09 164.13 106.06 163.44 106.06 162.84L106 162C106 159.81 106.16 158.2 106.44 157.17C106.69 156.27 107.27 155.69 108.17 155.44C108.64 155.31 109.5 155.22 110.82 155.16C112.12 155.09 113.31 155.06 114.41 155.06L116 155C120.19 155 122.8 155.16 123.83 155.44C124.73 155.69 125.31 156.27 125.56 157.17Z" fill="#828282"/>
<path d="M159.8 152H168.2C171.4 152 174 154.6 174 157.8V166.2C174 167.738 173.389 169.214 172.301 170.301C171.214 171.389 169.738 172 168.2 172H159.8C156.6 172 154 169.4 154 166.2V157.8C154 156.262 154.611 154.786 155.699 153.699C156.786 152.611 158.262 152 159.8 152ZM159.6 154C158.645 154 157.73 154.379 157.054 155.054C156.379 155.73 156 156.645 156 157.6V166.4C156 168.39 157.61 170 159.6 170H168.4C169.355 170 170.27 169.621 170.946 168.946C171.621 168.27 172 167.355 172 166.4V157.6C172 155.61 170.39 154 168.4 154H159.6ZM169.25 155.5C169.582 155.5 169.899 155.632 170.134 155.866C170.368 156.101 170.5 156.418 170.5 156.75C170.5 157.082 170.368 157.399 170.134 157.634C169.899 157.868 169.582 158 169.25 158C168.918 158 168.601 157.868 168.366 157.634C168.132 157.399 168 157.082 168 156.75C168 156.418 168.132 156.101 168.366 155.866C168.601 155.632 168.918 155.5 169.25 155.5ZM164 157C165.326 157 166.598 157.527 167.536 158.464C168.473 159.402 169 160.674 169 162C169 163.326 168.473 164.598 167.536 165.536C166.598 166.473 165.326 167 164 167C162.674 167 161.402 166.473 160.464 165.536C159.527 164.598 159 163.326 159 162C159 160.674 159.527 159.402 160.464 158.464C161.402 157.527 162.674 157 164 157ZM164 159C163.204 159 162.441 159.316 161.879 159.879C161.316 160.441 161 161.204 161 162C161 162.796 161.316 163.559 161.879 164.121C162.441 164.684 163.204 165 164 165C164.796 165 165.559 164.684 166.121 164.121C166.684 163.559 167 162.796 167 162C167 161.204 166.684 160.441 166.121 159.879C165.559 159.316 164.796 159 164 159Z" fill="#828282"/>
</svg>
