<svg width="1440" height="164" viewBox="0 0 1440 164" fill="none" xmlns="http://www.w3.org/2000/svg">
<rect width="1440" height="164" fill="white"/>
<path d="M1011.83 89H1009.5L1014.73 74.4545H1017.27L1022.5 89H1020.17L1016.06 77.0966H1015.95L1011.83 89ZM1012.22 83.304H1019.77V85.1506H1012.22V83.304ZM1024.6 89V74.4545H1026.73V79.8594H1026.85C1026.98 79.6321 1027.15 79.3693 1027.39 79.071C1027.62 78.7727 1027.94 78.5123 1028.35 78.2898C1028.76 78.0625 1029.31 77.9489 1029.99 77.9489C1030.87 77.9489 1031.65 78.1714 1032.34 78.6165C1033.03 79.0616 1033.58 79.7031 1033.97 80.5412C1034.37 81.3793 1034.57 82.3878 1034.57 83.5668C1034.57 84.7457 1034.37 85.7566 1033.98 86.5994C1033.58 87.4375 1033.04 88.0838 1032.36 88.5384C1031.67 88.9882 1030.89 89.2131 1030.01 89.2131C1029.34 89.2131 1028.8 89.1018 1028.38 88.8793C1027.96 88.6567 1027.64 88.3963 1027.4 88.098C1027.16 87.7997 1026.98 87.5346 1026.85 87.3026H1026.68V89H1024.6ZM1026.68 83.5455C1026.68 84.3125 1026.79 84.9848 1027.02 85.5625C1027.24 86.1402 1027.56 86.5923 1027.98 86.919C1028.4 87.241 1028.92 87.402 1029.53 87.402C1030.17 87.402 1030.7 87.2339 1031.12 86.8977C1031.55 86.5568 1031.87 86.0952 1032.09 85.5128C1032.31 84.9304 1032.42 84.2746 1032.42 83.5455C1032.42 82.8258 1032.31 82.1795 1032.09 81.6065C1031.88 81.0336 1031.56 80.5814 1031.13 80.25C1030.7 79.9186 1030.17 79.7528 1029.53 79.7528C1028.92 79.7528 1028.39 79.9115 1027.97 80.2287C1027.55 80.5459 1027.23 80.9886 1027.01 81.5568C1026.79 82.125 1026.68 82.7879 1026.68 83.5455ZM1041.55 89.2202C1040.52 89.2202 1039.63 88.9858 1038.87 88.517C1038.11 88.0483 1037.51 87.3925 1037.09 86.5497C1036.67 85.7069 1036.46 84.7221 1036.46 83.5952C1036.46 82.4635 1036.67 81.474 1037.09 80.6264C1037.51 79.7789 1038.11 79.1207 1038.87 78.652C1039.63 78.1832 1040.52 77.9489 1041.55 77.9489C1042.57 77.9489 1043.46 78.1832 1044.22 78.652C1044.99 79.1207 1045.58 79.7789 1046 80.6264C1046.42 81.474 1046.63 82.4635 1046.63 83.5952C1046.63 84.7221 1046.42 85.7069 1046 86.5497C1045.58 87.3925 1044.99 88.0483 1044.22 88.517C1043.46 88.9858 1042.57 89.2202 1041.55 89.2202ZM1041.55 87.4375C1042.22 87.4375 1042.77 87.2623 1043.2 86.9119C1043.64 86.5616 1043.96 86.0952 1044.17 85.5128C1044.38 84.9304 1044.49 84.2888 1044.49 83.5881C1044.49 82.892 1044.38 82.2528 1044.17 81.6705C1043.96 81.0833 1043.64 80.6122 1043.2 80.2571C1042.77 79.902 1042.22 79.7244 1041.55 79.7244C1040.89 79.7244 1040.33 79.902 1039.89 80.2571C1039.46 80.6122 1039.13 81.0833 1038.92 81.6705C1038.71 82.2528 1038.61 82.892 1038.61 83.5881C1038.61 84.2888 1038.71 84.9304 1038.92 85.5128C1039.13 86.0952 1039.46 86.5616 1039.89 86.9119C1040.33 87.2623 1040.89 87.4375 1041.55 87.4375ZM1055.91 84.4759V78.0909H1058.04V89H1055.95V87.1108H1055.84C1055.59 87.6932 1055.19 88.1785 1054.63 88.5668C1054.08 88.9503 1053.4 89.142 1052.58 89.142C1051.88 89.142 1051.26 88.9882 1050.72 88.6804C1050.19 88.3679 1049.76 87.9062 1049.46 87.2955C1049.15 86.6847 1049 85.9295 1049 85.0298V78.0909H1051.13V84.7741C1051.13 85.5175 1051.33 86.1094 1051.74 86.5497C1052.16 86.9901 1052.69 87.2102 1053.35 87.2102C1053.75 87.2102 1054.14 87.1108 1054.53 86.9119C1054.93 86.7131 1055.26 86.4124 1055.52 86.0099C1055.79 85.6075 1055.92 85.0961 1055.91 84.4759ZM1065.99 78.0909V79.7955H1060.03V78.0909H1065.99ZM1061.63 75.4773H1063.75V85.7969C1063.75 86.2088 1063.81 86.5189 1063.94 86.7273C1064.06 86.9309 1064.22 87.0705 1064.41 87.1463C1064.61 87.2173 1064.83 87.2528 1065.06 87.2528C1065.23 87.2528 1065.38 87.241 1065.51 87.2173C1065.63 87.1937 1065.73 87.1747 1065.8 87.1605L1066.19 88.9148C1066.06 88.9621 1065.89 89.0095 1065.66 89.0568C1065.43 89.1089 1065.15 89.1373 1064.81 89.142C1064.25 89.1515 1063.73 89.0521 1063.25 88.8438C1062.76 88.6354 1062.37 88.3134 1062.08 87.8778C1061.78 87.4422 1061.63 86.8954 1061.63 86.2372V75.4773ZM1080.54 84.4759V78.0909H1082.67V89H1080.58V87.1108H1080.47C1080.22 87.6932 1079.82 88.1785 1079.26 88.5668C1078.71 88.9503 1078.03 89.142 1077.21 89.142C1076.51 89.142 1075.89 88.9882 1075.35 88.6804C1074.81 88.3679 1074.39 87.9062 1074.09 87.2955C1073.78 86.6847 1073.63 85.9295 1073.63 85.0298V78.0909H1075.75V84.7741C1075.75 85.5175 1075.96 86.1094 1076.37 86.5497C1076.78 86.9901 1077.32 87.2102 1077.98 87.2102C1078.38 87.2102 1078.77 87.1108 1079.16 86.9119C1079.56 86.7131 1079.89 86.4124 1080.15 86.0099C1080.42 85.6075 1080.55 85.0961 1080.54 84.4759ZM1093.7 80.7543L1091.78 81.0952C1091.69 80.849 1091.57 80.6146 1091.39 80.392C1091.22 80.1695 1090.99 79.9872 1090.7 79.8452C1090.4 79.7031 1090.04 79.6321 1089.59 79.6321C1088.99 79.6321 1088.49 79.767 1088.09 80.0369C1087.69 80.3021 1087.49 80.6454 1087.49 81.0668C1087.49 81.4313 1087.62 81.7249 1087.89 81.9474C1088.16 82.17 1088.6 82.3523 1089.2 82.4943L1090.93 82.892C1091.93 83.1241 1092.68 83.4815 1093.17 83.9645C1093.67 84.4474 1093.91 85.0748 1093.91 85.8466C1093.91 86.5 1093.72 87.0824 1093.34 87.5938C1092.97 88.1004 1092.45 88.4981 1091.78 88.7869C1091.11 89.0758 1090.33 89.2202 1089.45 89.2202C1088.23 89.2202 1087.23 88.9598 1086.46 88.4389C1085.69 87.9134 1085.22 87.1676 1085.04 86.2017L1087.09 85.8892C1087.22 86.4242 1087.49 86.8291 1087.88 87.1037C1088.28 87.3736 1088.8 87.5085 1089.44 87.5085C1090.13 87.5085 1090.69 87.3641 1091.11 87.0753C1091.52 86.7817 1091.73 86.4242 1091.73 86.0028C1091.73 85.6619 1091.6 85.3755 1091.35 85.1435C1091.1 84.9115 1090.71 84.7363 1090.19 84.6179L1088.34 84.2131C1087.33 83.9811 1086.57 83.6117 1086.09 83.1051C1085.6 82.5985 1085.36 81.9569 1085.36 81.1804C1085.36 80.5365 1085.54 79.973 1085.9 79.4901C1086.26 79.0071 1086.76 78.6307 1087.39 78.3608C1088.03 78.0862 1088.75 77.9489 1089.57 77.9489C1090.75 77.9489 1091.68 78.2045 1092.36 78.7159C1093.03 79.2225 1093.48 79.902 1093.7 80.7543Z" fill="black"/>
<path d="M1152.53 78.2756C1152.46 77.6032 1152.14 77.0824 1151.59 76.7131C1151.04 76.339 1150.35 76.152 1149.52 76.152C1148.92 76.152 1148.41 76.2467 1147.97 76.4361C1147.54 76.6207 1147.2 76.8764 1146.96 77.2031C1146.72 77.5251 1146.6 77.892 1146.6 78.304C1146.6 78.6496 1146.68 78.9479 1146.84 79.1989C1147.01 79.4498 1147.22 79.6605 1147.49 79.831C1147.76 79.9967 1148.05 80.1364 1148.36 80.25C1148.66 80.3589 1148.96 80.4489 1149.24 80.5199L1150.66 80.8892C1151.13 81.0028 1151.6 81.1567 1152.09 81.3509C1152.58 81.545 1153.03 81.8007 1153.45 82.1179C1153.86 82.4351 1154.2 82.8281 1154.46 83.2969C1154.72 83.7656 1154.85 84.3267 1154.85 84.9801C1154.85 85.804 1154.63 86.5355 1154.21 87.1747C1153.79 87.8139 1153.17 88.3182 1152.37 88.6875C1151.57 89.0568 1150.6 89.2415 1149.46 89.2415C1148.37 89.2415 1147.43 89.0687 1146.64 88.723C1145.84 88.3774 1145.22 87.8873 1144.77 87.2528C1144.32 86.6136 1144.07 85.8561 1144.02 84.9801H1146.22C1146.27 85.5057 1146.44 85.9437 1146.74 86.294C1147.04 86.6397 1147.42 86.8977 1147.89 87.0682C1148.37 87.2339 1148.89 87.3168 1149.45 87.3168C1150.07 87.3168 1150.62 87.2197 1151.1 87.0256C1151.59 86.8267 1151.97 86.5521 1152.25 86.2017C1152.53 85.8466 1152.67 85.4323 1152.67 84.9588C1152.67 84.5279 1152.55 84.1752 1152.3 83.9006C1152.06 83.6259 1151.73 83.3987 1151.32 83.2188C1150.9 83.0388 1150.44 82.8802 1149.92 82.7429L1148.2 82.2741C1147.03 81.9569 1146.11 81.4905 1145.43 80.875C1144.75 80.2595 1144.41 79.4451 1144.41 78.4318C1144.41 77.5937 1144.64 76.8622 1145.1 76.2372C1145.55 75.6122 1146.17 75.1269 1146.94 74.7812C1147.72 74.4309 1148.59 74.2557 1149.57 74.2557C1150.55 74.2557 1151.42 74.4285 1152.18 74.7741C1152.93 75.1198 1153.53 75.5956 1153.97 76.2017C1154.4 76.803 1154.63 77.4943 1154.65 78.2756H1152.53ZM1157.3 89V78.0909H1159.42V89H1157.3ZM1158.37 76.4077C1158 76.4077 1157.68 76.2846 1157.42 76.0384C1157.16 75.7874 1157.03 75.4891 1157.03 75.1435C1157.03 74.7931 1157.16 74.4948 1157.42 74.2486C1157.68 73.9976 1158 73.8722 1158.37 73.8722C1158.74 73.8722 1159.06 73.9976 1159.32 74.2486C1159.58 74.4948 1159.71 74.7931 1159.71 75.1435C1159.71 75.4891 1159.58 75.7874 1159.32 76.0384C1159.06 76.2846 1158.74 76.4077 1158.37 76.4077ZM1166.85 93.3182C1165.99 93.3182 1165.24 93.2045 1164.62 92.9773C1164 92.75 1163.49 92.4493 1163.1 92.0753C1162.7 91.7012 1162.41 91.2917 1162.22 90.8466L1164.04 90.0938C1164.17 90.3021 1164.34 90.5223 1164.55 90.7543C1164.77 90.991 1165.06 91.1922 1165.43 91.358C1165.81 91.5237 1166.29 91.6065 1166.87 91.6065C1167.68 91.6065 1168.34 91.41 1168.87 91.017C1169.4 90.6288 1169.66 90.0085 1169.66 89.1562V87.0114H1169.52C1169.4 87.2434 1169.21 87.5014 1168.97 87.7855C1168.73 88.0696 1168.41 88.3158 1167.99 88.5241C1167.57 88.7325 1167.03 88.8366 1166.36 88.8366C1165.5 88.8366 1164.72 88.6354 1164.03 88.233C1163.35 87.8258 1162.8 87.2268 1162.4 86.4361C1162 85.6406 1161.8 84.6629 1161.8 83.5028C1161.8 82.3428 1162 81.3485 1162.39 80.5199C1162.79 79.6913 1163.33 79.0568 1164.03 78.6165C1164.72 78.1714 1165.5 77.9489 1166.38 77.9489C1167.05 77.9489 1167.6 78.0625 1168.02 78.2898C1168.43 78.5123 1168.76 78.7727 1168.99 79.071C1169.23 79.3693 1169.41 79.6321 1169.54 79.8594H1169.69V78.0909H1171.77V89.2415C1171.77 90.179 1171.56 90.9484 1171.12 91.5497C1170.69 92.151 1170.1 92.5961 1169.35 92.8849C1168.61 93.1738 1167.78 93.3182 1166.85 93.3182ZM1166.83 87.0753C1167.44 87.0753 1167.96 86.9332 1168.38 86.6491C1168.81 86.3603 1169.13 85.9484 1169.35 85.4134C1169.57 84.8736 1169.68 84.2273 1169.68 83.4744C1169.68 82.7405 1169.57 82.0942 1169.35 81.5355C1169.14 80.9768 1168.82 80.5412 1168.39 80.2287C1167.97 79.9115 1167.45 79.7528 1166.83 79.7528C1166.19 79.7528 1165.66 79.9186 1165.23 80.25C1164.81 80.5767 1164.49 81.0218 1164.27 81.5852C1164.05 82.1487 1163.95 82.7784 1163.95 83.4744C1163.95 84.1894 1164.06 84.8168 1164.27 85.3565C1164.49 85.8963 1164.81 86.3177 1165.24 86.6207C1165.67 86.9238 1166.2 87.0753 1166.83 87.0753ZM1176.75 82.5227V89H1174.62V78.0909H1176.66V79.8665H1176.8C1177.05 79.2888 1177.44 78.8248 1177.98 78.4744C1178.51 78.1241 1179.19 77.9489 1180.01 77.9489C1180.76 77.9489 1181.41 78.1051 1181.97 78.4176C1182.53 78.7254 1182.96 79.1847 1183.27 79.7955C1183.57 80.4062 1183.73 81.1615 1183.73 82.0611V89H1181.6V82.3168C1181.6 81.526 1181.4 80.9081 1180.99 80.4631C1180.57 80.0133 1180.01 79.7884 1179.29 79.7884C1178.8 79.7884 1178.36 79.8949 1177.98 80.108C1177.6 80.321 1177.3 80.6335 1177.07 81.0455C1176.86 81.4527 1176.75 81.9451 1176.75 82.5227ZM1198.78 84.4759V78.0909H1200.91V89H1198.82V87.1108H1198.71C1198.46 87.6932 1198.06 88.1785 1197.5 88.5668C1196.95 88.9503 1196.27 89.142 1195.45 89.142C1194.75 89.142 1194.13 88.9882 1193.59 88.6804C1193.05 88.3679 1192.63 87.9062 1192.32 87.2955C1192.02 86.6847 1191.87 85.9295 1191.87 85.0298V78.0909H1193.99V84.7741C1193.99 85.5175 1194.2 86.1094 1194.61 86.5497C1195.02 86.9901 1195.56 87.2102 1196.22 87.2102C1196.61 87.2102 1197.01 87.1108 1197.4 86.9119C1197.8 86.7131 1198.13 86.4124 1198.39 86.0099C1198.65 85.6075 1198.78 85.0961 1198.78 84.4759ZM1203.76 93.0909V78.0909H1205.84V79.8594H1206.01C1206.14 79.6321 1206.32 79.3693 1206.55 79.071C1206.78 78.7727 1207.1 78.5123 1207.51 78.2898C1207.93 78.0625 1208.47 77.9489 1209.15 77.9489C1210.03 77.9489 1210.81 78.1714 1211.5 78.6165C1212.2 79.0616 1212.74 79.7031 1213.13 80.5412C1213.53 81.3793 1213.73 82.3878 1213.73 83.5668C1213.73 84.7457 1213.53 85.7566 1213.14 86.5994C1212.75 87.4375 1212.21 88.0838 1211.52 88.5384C1210.83 88.9882 1210.05 89.2131 1209.17 89.2131C1208.51 89.2131 1207.96 89.1018 1207.54 88.8793C1207.13 88.6567 1206.8 88.3963 1206.56 88.098C1206.33 87.7997 1206.14 87.5346 1206.01 87.3026H1205.89V93.0909H1203.76ZM1205.84 83.5455C1205.84 84.3125 1205.96 84.9848 1206.18 85.5625C1206.4 86.1402 1206.72 86.5923 1207.14 86.919C1207.57 87.241 1208.08 87.402 1208.69 87.402C1209.33 87.402 1209.86 87.2339 1210.28 86.8977C1210.71 86.5568 1211.03 86.0952 1211.25 85.5128C1211.47 84.9304 1211.58 84.2746 1211.58 83.5455C1211.58 82.8258 1211.47 82.1795 1211.26 81.6065C1211.04 81.0336 1210.72 80.5814 1210.29 80.25C1209.86 79.9186 1209.33 79.7528 1208.69 79.7528C1208.08 79.7528 1207.56 79.9115 1207.13 80.2287C1206.71 80.5459 1206.39 80.9886 1206.17 81.5568C1205.95 82.125 1205.84 82.7879 1205.84 83.5455Z" fill="black"/>
<g filter="url(#filter0_d_6_292)">
<rect x="1263" y="56" width="97" height="52" rx="8" fill="black" shape-rendering="crispEdges"/>
<path d="M1288.28 88V76.3636H1290.03V81.4205H1295.84V76.3636H1297.6V88H1295.84V82.9261H1290.03V88H1288.28ZM1310.26 82.1818C1310.26 83.4242 1310.03 84.4924 1309.58 85.3864C1309.13 86.2765 1308.5 86.9621 1307.71 87.4432C1306.92 87.9205 1306.03 88.1591 1305.02 88.1591C1304.02 88.1591 1303.12 87.9205 1302.32 87.4432C1301.54 86.9621 1300.91 86.2746 1300.46 85.3807C1300.01 84.4867 1299.78 83.4205 1299.78 82.1818C1299.78 80.9394 1300.01 79.8731 1300.46 78.983C1300.91 78.089 1301.54 77.4034 1302.32 76.9261C1303.12 76.4451 1304.02 76.2045 1305.02 76.2045C1306.03 76.2045 1306.92 76.4451 1307.71 76.9261C1308.5 77.4034 1309.13 78.089 1309.58 78.983C1310.03 79.8731 1310.26 80.9394 1310.26 82.1818ZM1308.52 82.1818C1308.52 81.2348 1308.37 80.4375 1308.06 79.7898C1307.76 79.1383 1307.34 78.6458 1306.81 78.3125C1306.29 77.9754 1305.69 77.8068 1305.02 77.8068C1304.35 77.8068 1303.75 77.9754 1303.23 78.3125C1302.7 78.6458 1302.28 79.1383 1301.98 79.7898C1301.67 80.4375 1301.52 81.2348 1301.52 82.1818C1301.52 83.1288 1301.67 83.928 1301.98 84.5795C1302.28 85.2273 1302.7 85.7197 1303.23 86.0568C1303.75 86.3902 1304.35 86.5568 1305.02 86.5568C1305.69 86.5568 1306.29 86.3902 1306.81 86.0568C1307.34 85.7197 1307.76 85.2273 1308.06 84.5795C1308.37 83.928 1308.52 83.1288 1308.52 82.1818ZM1312.45 76.3636H1314.58L1318.29 85.4091H1318.42L1322.13 76.3636H1324.26V88H1322.59V79.5795H1322.48L1319.05 87.983H1317.66L1314.23 79.5739H1314.12V88H1312.45V76.3636ZM1326.81 88V76.3636H1334.11V77.875H1328.57V81.4205H1333.72V82.9261H1328.57V86.4886H1334.17V88H1326.81Z" fill="white"/>
</g>
<path d="M81.598 89V74.4545H86.7827C87.9096 74.4545 88.8447 74.6487 89.5881 75.0369C90.3362 75.4252 90.8949 75.9626 91.2642 76.6491C91.6335 77.331 91.8182 78.1193 91.8182 79.0142C91.8182 79.9044 91.6312 80.688 91.2571 81.3651C90.8878 82.0374 90.3291 82.5606 89.581 82.9347C88.8376 83.3087 87.9025 83.4957 86.7756 83.4957H82.848V81.6065H86.5767C87.2869 81.6065 87.8646 81.5047 88.3097 81.3011C88.7595 81.0975 89.0885 80.8016 89.2969 80.4134C89.5052 80.0251 89.6094 79.5587 89.6094 79.0142C89.6094 78.465 89.5028 77.9891 89.2898 77.5866C89.0814 77.1842 88.7524 76.8764 88.3026 76.6634C87.8575 76.4455 87.2727 76.3366 86.5483 76.3366H83.7926V89H81.598ZM88.7784 82.4375L92.3722 89H89.8722L86.3494 82.4375H88.7784ZM106.57 79.1847H104.354C104.268 78.7112 104.11 78.2945 103.878 77.9347C103.646 77.5748 103.362 77.2694 103.026 77.0185C102.689 76.7675 102.313 76.5781 101.896 76.4503C101.484 76.3224 101.046 76.2585 100.582 76.2585C99.7443 76.2585 98.9938 76.4692 98.331 76.8906C97.6728 77.312 97.152 77.9299 96.7685 78.7443C96.3897 79.5587 96.2003 80.553 96.2003 81.7273C96.2003 82.911 96.3897 83.91 96.7685 84.7244C97.152 85.5388 97.6752 86.1544 98.3381 86.571C99.0009 86.9877 99.7467 87.196 100.575 87.196C101.035 87.196 101.47 87.1345 101.882 87.0114C102.299 86.8835 102.675 86.6965 103.011 86.4503C103.348 86.2041 103.632 85.9034 103.864 85.5483C104.1 85.1884 104.264 84.7765 104.354 84.3125L106.57 84.3196C106.451 85.0346 106.222 85.6927 105.881 86.294C105.545 86.8906 105.111 87.4067 104.581 87.8423C104.055 88.2732 103.454 88.607 102.777 88.8438C102.1 89.0805 101.361 89.1989 100.561 89.1989C99.3016 89.1989 98.1795 88.9006 97.1946 88.304C96.2098 87.7027 95.4332 86.8433 94.8651 85.7259C94.3016 84.6084 94.0199 83.2756 94.0199 81.7273C94.0199 80.1742 94.304 78.8414 94.8722 77.7287C95.4403 76.6113 96.2169 75.7543 97.2017 75.1577C98.1866 74.5563 99.3063 74.2557 100.561 74.2557C101.333 74.2557 102.053 74.367 102.72 74.5895C103.393 74.8073 103.996 75.1293 104.531 75.5554C105.066 75.9768 105.509 76.4929 105.859 77.1037C106.21 77.7098 106.446 78.4034 106.57 79.1847ZM117.129 78.2756C117.053 77.6032 116.741 77.0824 116.191 76.7131C115.642 76.339 114.951 76.152 114.118 76.152C113.521 76.152 113.005 76.2467 112.569 76.4361C112.134 76.6207 111.795 76.8764 111.554 77.2031C111.317 77.5251 111.199 77.892 111.199 78.304C111.199 78.6496 111.279 78.9479 111.44 79.1989C111.606 79.4498 111.821 79.6605 112.086 79.831C112.356 79.9967 112.645 80.1364 112.953 80.25C113.261 80.3589 113.556 80.4489 113.841 80.5199L115.261 80.8892C115.725 81.0028 116.201 81.1567 116.689 81.3509C117.176 81.545 117.628 81.8007 118.045 82.1179C118.462 82.4351 118.798 82.8281 119.054 83.2969C119.314 83.7656 119.444 84.3267 119.444 84.9801C119.444 85.804 119.231 86.5355 118.805 87.1747C118.384 87.8139 117.77 88.3182 116.966 88.6875C116.165 89.0568 115.197 89.2415 114.061 89.2415C112.972 89.2415 112.029 89.0687 111.234 88.723C110.439 88.3774 109.816 87.8873 109.366 87.2528C108.916 86.6136 108.668 85.8561 108.62 84.9801H110.822C110.865 85.5057 111.035 85.9437 111.333 86.294C111.636 86.6397 112.022 86.8977 112.491 87.0682C112.965 87.2339 113.483 87.3168 114.047 87.3168C114.667 87.3168 115.218 87.2197 115.701 87.0256C116.189 86.8267 116.573 86.5521 116.852 86.2017C117.131 85.8466 117.271 85.4323 117.271 84.9588C117.271 84.5279 117.148 84.1752 116.902 83.9006C116.66 83.6259 116.331 83.3987 115.914 83.2188C115.502 83.0388 115.036 82.8802 114.515 82.7429L112.797 82.2741C111.632 81.9569 110.708 81.4905 110.027 80.875C109.35 80.2595 109.011 79.4451 109.011 78.4318C109.011 77.5937 109.238 76.8622 109.693 76.2372C110.147 75.6122 110.763 75.1269 111.539 74.7812C112.316 74.4309 113.192 74.2557 114.167 74.2557C115.152 74.2557 116.021 74.4285 116.774 74.7741C117.531 75.1198 118.128 75.5956 118.564 76.2017C118.999 76.803 119.226 77.4943 119.245 78.2756H117.129Z" fill="black"/>
<defs>
<filter id="filter0_d_6_292" x="1261" y="55" width="101" height="56" filterUnits="userSpaceOnUse" color-interpolation-filters="sRGB">
<feFlood flood-opacity="0" result="BackgroundImageFix"/>
<feColorMatrix in="SourceAlpha" type="matrix" values="0 0 0 0 0 0 0 0 0 0 0 0 0 0 0 0 0 0 127 0" result="hardAlpha"/>
<feOffset dy="1"/>
<feGaussianBlur stdDeviation="1"/>
<feComposite in2="hardAlpha" operator="out"/>
<feColorMatrix type="matrix" values="0 0 0 0 0 0 0 0 0 0 0 0 0 0 0 0 0 0 0.05 0"/>
<feBlend mode="normal" in2="BackgroundImageFix" result="effect1_dropShadow_6_292"/>
<feBlend mode="normal" in="SourceGraphic" in2="effect1_dropShadow_6_292" result="shape"/>
</filter>
</defs>
</svg>
